<?xml version="1.0" encoding="iso-8859-1"?>
<!-- Generator: Adobe Illustrator 16.0.0, SVG Export Plug-In . SVG Version: 6.00 Build 0)  -->
<!DOCTYPE svg PUBLIC "-//W3C//DTD SVG 1.1//EN" "http://www.w3.org/Graphics/SVG/1.1/DTD/svg11.dtd">
<svg version="1.1" xmlns="http://www.w3.org/2000/svg" xmlns:xlink="http://www.w3.org/1999/xlink" x="0px" y="0px" width="512px"
	 height="512px" viewBox="0 0 512 512" style="enable-background:new 0 0 512 512;" xml:space="preserve">
<g id="Guides_For_Artboard_1_">
</g>
<g id="Artwork">
</g>
<g id="Layer_3">
	<g>
		<path d="M454.023,250.458c-0.52-0.896-12.103-22.733-38.038-45.813c-23.816-21.195-64.848-47.623-125.065-53.16
			c-48.415-4.451-93.196,10.831-129.514,44.194c-27.221,25.005-40.041,51.19-40.573,52.292c-0.001,0.003-0.002,0.005-0.003,0.008
			c-20.025,0.059-33.325,0.094-36.05,0.094c-57.556,0-73.941,110.321,2.151,110.321c5.098,0-17.235,0.359,6.824,0.359
			c0.885-31.591,26.84-57.022,58.639-57.022c31.802,0,57.757,25.432,58.643,57.022c32.107,0,66.238,0,98.777,0
			c0.886-31.775,26.99-57.355,58.975-57.355c31.93,0,57.999,25.49,58.971,57.188C498.875,354.067,464.688,268.861,454.023,250.458z
			 M143.854,247.91c5.645-9.069,16.097-23.853,31.606-37.982c25.468-23.202,54.539-36.171,86.694-38.74v76.356
			C219.149,247.68,176.571,247.812,143.854,247.91z M279.217,286.017h-21.123c-2.745,0-4.97-2.225-4.97-4.97s2.225-4.971,4.97-4.971
			h8.64c0.607,0.188,1.252,0.289,1.921,0.289s1.313-0.102,1.921-0.289h8.642c2.745,0,4.97,2.226,4.97,4.971
			S281.962,286.017,279.217,286.017z M275.154,247.504v-76.782c4.588,0.028,9.23,0.246,13.934,0.679
			c26.584,2.444,51.061,9.343,73.201,20.578v55.249C335.744,247.313,305.582,247.408,275.154,247.504z M375.289,247.187v-47.947
			c9.396,5.749,18.326,12.34,26.762,19.779c11.707,10.324,20.231,20.434,25.852,28C414.593,247.061,396.402,247.119,375.289,247.187
			z"/>
		<path d="M152.395,311.73c-26.842,0-48.682,21.839-48.682,48.684c0,26.844,21.84,48.683,48.682,48.683
			c26.844,0,48.684-21.839,48.684-48.683C201.078,333.569,179.238,311.73,152.395,311.73z M152.395,385.973
			c-14.092,0-25.557-11.466-25.557-25.559c0-14.094,11.465-25.559,25.557-25.559c14.094,0,25.559,11.465,25.559,25.559
			C177.953,374.507,166.488,385.973,152.395,385.973z"/>
		<path d="M368.789,311.73c-26.844,0-48.684,21.839-48.684,48.684c0,26.844,21.84,48.683,48.684,48.683
			c26.846,0,48.684-21.839,48.684-48.683C417.473,333.569,395.635,311.73,368.789,311.73z M368.789,385.973
			c-14.092,0-25.559-11.466-25.559-25.559c0-14.094,11.467-25.559,25.559-25.559c14.094,0,25.559,11.465,25.559,25.559
			C394.348,374.507,382.883,385.973,368.789,385.973z"/>
	</g>
</g>
</svg>
