<?xml version="1.0" encoding="utf-8"?>
<!-- Generator: Adobe Illustrator 16.0.0, SVG Export Plug-In . SVG Version: 6.00 Build 0)  -->
<!DOCTYPE svg PUBLIC "-//W3C//DTD SVG 1.1//EN" "http://www.w3.org/Graphics/SVG/1.1/DTD/svg11.dtd">
<svg version="1.1" id="Layer_4" xmlns="http://www.w3.org/2000/svg" xmlns:xlink="http://www.w3.org/1999/xlink" x="0px" y="0px"
	 width="100px" height="100px" viewBox="0 0 100 100" enable-background="new 0 0 100 100" xml:space="preserve">
<path d="M88.402,16.995H9.306v53.537h79.097V16.995z M83.244,65.373h-68.78V22.154h68.78V65.373z M4.434,73.453v7.164
	c12.82,4.235,88.056,1.931,91.133,0v-7.164H4.434z M60.245,76.963H41.761v-2.149h18.484V76.963z M78.944,79.327
	c-0.949,0-1.719-0.77-1.719-1.719c0-0.95,0.77-1.72,1.719-1.72c0.95,0,1.721,0.77,1.721,1.72
	C80.665,78.558,79.895,79.327,78.944,79.327z M86.396,79.327c-0.95,0-1.72-0.77-1.72-1.719c0-0.95,0.77-1.72,1.72-1.72
	c0.949,0,1.72,0.77,1.72,1.72C88.116,78.558,87.346,79.327,86.396,79.327z"/>
</svg>
