<?xml version="1.0" encoding="utf-8"?>
<!-- Generator: Adobe Illustrator 15.0.0, SVG Export Plug-In . SVG Version: 6.00 Build 0)  -->
<!DOCTYPE svg PUBLIC "-//W3C//DTD SVG 1.1//EN" "http://www.w3.org/Graphics/SVG/1.1/DTD/svg11.dtd">
<svg version="1.1" id="Capa_1" xmlns="http://www.w3.org/2000/svg" xmlns:xlink="http://www.w3.org/1999/xlink" x="0px" y="0px"
	 width="600px" height="600px" viewBox="0 0 600 600" enable-background="new 0 0 600 600" xml:space="preserve">
<g>
	<path fill="#222221" d="M346.175,98.5h-92.35c-40.65,0-73.722,33.071-73.722,73.721v255.557c0,40.65,33.072,73.723,73.722,73.723
		h92.35c40.651,0,73.723-33.072,73.723-73.723V172.221C419.897,131.571,386.826,98.5,346.175,98.5z M346.175,476.277h-92.35
		c-26.743,0-48.5-21.757-48.5-48.5v-16.09h189.35v16.09C394.675,454.521,372.918,476.277,346.175,476.277z M394.675,196.465v190
		h-189.35v-190H394.675z M253.825,123.721h92.35c26.417,0,47.968,21.228,48.49,47.521H205.334
		C205.856,144.948,227.408,123.721,253.825,123.721z"/>
	<path fill="#222221" d="M326.975,429.055h-51.85c-6.954,0-12.611,5.657-12.611,12.611s5.657,12.611,12.611,12.611h51.85
		c6.954,0,12.611-5.657,12.611-12.611S333.929,429.055,326.975,429.055z"/>
	<path fill="#222221" d="M299.995,164.721c3.257,0,6.513-1.35,8.951-3.718c2.326-2.333,3.66-5.595,3.66-8.948
		c0-3.318-1.334-6.561-3.669-8.901c-2.265-2.234-5.522-3.516-8.937-3.516c-3.419,0-6.664,1.284-8.9,3.522
		c-2.362,2.362-3.716,5.604-3.716,8.895c0,3.325,1.354,6.587,3.716,8.949S296.704,164.721,299.995,164.721z"/>
</g>
</svg>
