<?xml version="1.0" encoding="iso-8859-1"?>
<!-- Generator: Adobe Illustrator 17.1.0, SVG Export Plug-In . SVG Version: 6.00 Build 0)  -->
<!DOCTYPE svg PUBLIC "-//W3C//DTD SVG 1.1//EN" "http://www.w3.org/Graphics/SVG/1.1/DTD/svg11.dtd">
<svg version="1.1" id="Capa_1" xmlns="http://www.w3.org/2000/svg" xmlns:xlink="http://www.w3.org/1999/xlink" x="0px" y="0px"
	 viewBox="0 0 64 64" style="enable-background:new 0 0 64 64;" xml:space="preserve">
<path d="M34.344,31.615c7.005,0,12.687-5.684,12.687-12.682c0-7.011-5.681-12.696-12.687-12.696c-7.01,0-12.684,5.686-12.684,12.696
	C21.66,25.931,27.333,31.615,34.344,31.615z"/>
<path d="M50.379,35.097c-0.67-1.435-1.514-2.878-2.592-4.255c-0.58-0.738-1.638-1.548-2.661-2.103
	c-2.652,2.972-6.496,4.854-10.782,4.854c-4.283,0-8.126-1.882-10.775-4.847c-1,0.568-2.03,1.378-2.591,2.114
	c-1.82,2.375-4.629,6.977-5.077,13.181c-0.094,1.309,0.529,3.308,1.623,4.071c2.076,1.453,6.554,3.312,15.878,3.312
	c3.228,0,5.948-0.199,8.247-0.509c-0.928-1.565-1.471-3.385-1.471-5.333C40.177,39.893,44.728,35.257,50.379,35.097z"/>
<path d="M50.379,37.082c-4.694,0-8.5,3.806-8.5,8.5c0,4.694,3.806,8.5,8.5,8.5c4.694,0,8.5-3.806,8.5-8.5
	C58.879,40.887,55.074,37.082,50.379,37.082z M50.002,50.9c-0.837,0-1.27-0.538-1.27-1.195c0-0.612,0.478-1.165,1.225-1.165
	c0.821,0,1.27,0.493,1.27,1.165C51.226,50.317,50.793,50.9,50.002,50.9z M51.54,45.461c-0.463,0.3-0.627,0.658-0.627,1.196v1.061
	h-1.867c-0.06-0.434-0.15-1.285-0.15-1.658c0-1.33,0.672-1.659,1.39-2.107c0.478-0.3,0.836-0.553,0.836-1.091
	c0-0.567-0.344-0.821-0.881-0.821c-0.448,0-0.911,0.119-1.285,0.224l-0.344-1.644c0.388-0.164,1.3-0.358,2.091-0.358
	c2.495,0,2.854,1.494,2.854,2.256C53.557,44.073,52.75,44.67,51.54,45.461z"/>
</svg>
